<svg width="525" height="140" viewBox="0 0 525 140" fill="none" xmlns="http://www.w3.org/2000/svg">
   <g clip-path="url(#clip0_8_7)">
   <path d="M133.393 14.9909H73.6216C73.621 22.1947 76.4632 29.1033 81.5229 34.1971C86.5826 39.2909 93.4453 42.1526 100.601 42.1526H111.612L111.611 52.8544C111.62 67.8417 123.685 79.9892 138.573 79.999L138.578 20.2107C138.578 17.3287 136.257 14.9909 133.393 14.9909Z" fill="#2684FF"/>
   <path d="M103.816 44.9714H44.0451C44.0532 59.9588 56.1188 72.1062 71.0073 72.116H82.0178L82.017 82.852C82.0349 97.8394 94.1087 109.978 108.997 109.978L109.001 50.1922C109.001 47.3092 106.68 44.9714 103.816 44.9714Z" fill="url(#paint0_linear_8_7)"/>
   <path d="M74.2219 74.9348H14.4506C14.4495 89.9358 26.5292 102.096 41.4303 102.096H52.4754L52.4746 112.798C52.4832 127.771 64.5279 139.913 79.4027 139.942L79.4072 80.1551C79.4074 77.2721 77.0857 74.9348 74.2219 74.9348Z" fill="url(#paint1_linear_8_7)"/>
   </g>
   <path d="M251.806 7.00624C248.82 7.09805 245.966 8.13665 243.838 9.93844C241.397 11.9897 240.14 14.8418 240.379 17.7399C240.379 21.5723 242.796 25.1168 246.732 27.0289C250.663 28.9491 255.512 28.9491 259.443 27.0289C263.373 25.1168 265.802 21.5723 265.794 17.7399C266.04 14.8418 264.782 11.9897 262.343 9.93844C259.909 7.8792 256.526 6.81796 253.091 7.02654C252.66 7.00068 252.233 6.99331 251.806 7.00624ZM199.305 13.2949L199.347 95.9691C199.346 107.683 193.781 115.802 177.688 115.802C170.95 115.846 164.273 114.812 158.001 112.759L158 128.385C165.357 130.5 173.09 131.529 180.861 131.435C207.143 131.435 218.358 116.514 218.36 94.8957L218.366 13.2949H199.305ZM396.442 39.5255C366.793 39.5255 351.97 60.777 351.968 85.9631C351.966 112.229 366.164 132.408 394.318 132.408C410.614 132.408 423.319 126.342 430.109 114.547L430.129 130.622H448.349L448.356 41.3111H430.136L430.135 57.0201C423.758 45.4082 411.893 39.5255 396.442 39.5255ZM341.022 39.9473C322.807 39.9266 313.037 47.1401 307.282 57.0201L307.283 41.3111H289.498L289.491 130.683H307.277L307.281 77.9065C307.282 58.9902 321.481 53.0233 344.776 55.0502L344.777 40.0483C343.486 39.9811 342.236 39.9486 341.022 39.9473ZM243.776 41.3318L243.769 130.641H261.98L261.987 41.3318H243.776ZM401.231 53.7324C416.78 53.7324 430.113 62.483 430.111 82.3141L430.111 89.5371C430.109 109.36 415.51 118.113 399.209 118.121C380.337 118.121 370.185 107.399 370.089 85.8802C370.091 65.1585 380.677 53.7324 401.231 53.7324Z" fill="#2684FF"/>
   <defs>
   <linearGradient id="paint0_linear_8_7" x1="16302.4" y1="74.9004" x2="9804.3" y2="7618.11" gradientUnits="userSpaceOnUse">
   <stop offset="0.18" stop-color="#0052CC"/>
   <stop offset="1" stop-color="#2684FF"/>
   </linearGradient>
   <linearGradient id="paint1_linear_8_7" x1="16709.8" y1="159.516" x2="9196.04" y2="8383.6" gradientUnits="userSpaceOnUse">
   <stop offset="0.18" stop-color="#0052CC"/>
   <stop offset="1" stop-color="#2684FF"/>
   </linearGradient>
   <clipPath id="clip0_8_7">
   <rect width="139.015" height="139.942" fill="white" transform="matrix(1 0 -7.37807e-05 1 7.01032 0)"/>
   </clipPath>
   </defs>
   </svg>
   